<?xml version="1.0" encoding="UTF-8"?>
<svg width="126px" height="40px" viewBox="0 0 126 40" version="1.1" xmlns="http://www.w3.org/2000/svg" xmlns:xlink="http://www.w3.org/1999/xlink">
    <!-- Generator: Sketch 51.1 (57501) - http://www.bohemiancoding.com/sketch -->
    <title>Main Logo</title>
    <desc>Created with Sketch.</desc>
    <defs></defs>
    <g id="Main-Logo" stroke="none" stroke-width="1" fill="none" fill-rule="evenodd">
        <g id="Logo" transform="translate(0.000000, 7.000000)" fill-rule="nonzero">
            <g id="cogoport_logo_full_black-copy-3">
                <path d="M8.13649595,16.5047542 C10.269973,16.5047542 11.3367116,15.1721939 11.6922911,14.0551948 L15.3735849,15.2113868 C14.6833423,17.6217533 12.257035,20.0909091 8.13649595,20.0909091 C3.57671158,20.0909091 0,16.8574907 0,12.4090909 C0,7.94109462 3.51396226,4.72727273 8.01099729,4.72727273 C12.2152021,4.72727273 14.620593,7.1768321 15.2690026,9.606795 L11.5249596,10.7825835 C11.1484636,9.56760204 10.1653908,8.33302412 8.09466307,8.33302412 C5.98210242,8.3526206 4.18328841,9.78316328 4.18328841,12.4090909 C4.18328841,15.0350185 6.00301886,16.5047542 8.13649595,16.5047542 Z" id="Shape" fill="#2E3738"></path>
                <path d="M29.5645864,11.8667229 C29.5645864,15.3116122 27.0159151,17.8040909 23.6516691,17.8040909 C20.287423,17.8040909 17.7387518,15.2913481 17.7387518,11.8667229 C17.7387518,8.4015696 20.287423,5.90909091 23.6516691,5.90909091 C27.0159151,5.90909091 29.5645864,8.4015696 29.5645864,11.8667229" id="Shape" fill="#09678C"></path>
                <path d="M65.04209,11.8667229 C65.04209,15.3116122 62.4934187,17.8040909 59.1291727,17.8040909 C55.7649268,17.8040909 53.2162554,15.2913481 53.2162554,11.8667229 C53.2162554,8.4015696 55.7649268,5.90909091 59.1291727,5.90909091 C62.4934187,5.90909091 65.04209,8.4015696 65.04209,11.8667229" id="Shape" fill="#FCB922"></path>
                <path d="M99.3370102,11.8667229 C99.3370102,15.3116122 96.7883389,17.8040909 93.4240929,17.8040909 C90.0598468,17.8040909 87.5111756,15.2913481 87.5111756,11.8667229 C87.5111756,8.4015696 90.0598468,5.90909091 93.4240929,5.90909091 C96.7883389,5.90909091 99.3370102,8.4015696 99.3370102,11.8667229" id="Shape" fill="#4BAF4F"></path>
                <path d="M112.345428,8.61061624 C111.862955,8.53447226 111.46439,8.49640027 111.086803,8.49640027 C108.94714,8.49640027 107.080179,9.44820014 107.080179,12.4749237 L107.080179,18.9090909 L102.884761,18.9090909 L102.884761,4.84148872 L106.954316,4.84148872 L106.954316,6.93544846 C107.898285,5.06992068 110.037948,4.72727273 111.359505,4.72727273 C111.716115,4.72727273 112.030772,4.74630873 112.345428,4.78438072 L112.345428,8.61061624 Z" id="Shape" fill="#2E3738"></path>
                <path d="M122.056872,4.55670103 L125.353846,4.55670103 L125.353846,8.22277412 L122.056872,8.22277412 L122.056872,14.6435801 C122.056872,15.9898781 122.720693,16.424836 123.981951,16.424836 C124.513007,16.424836 125.110445,16.3626992 125.353846,16.3005623 L125.353846,19.718088 C124.955554,19.8837862 124.158969,20.0909091 122.853456,20.0909091 C119.66712,20.0909091 117.675659,18.3096532 117.675659,15.3685099 L117.675659,8.24348639 L114.710595,8.24348639 L114.710595,4.5774133 L115.551434,4.5774133 C117.277367,4.5774133 118.07395,3.52108716 118.07395,2.15407685 L118.07395,0 L122.056872,0 L122.056872,4.55670103 Z" id="Shape" fill="#2E3738"></path>
                <path d="M83.9028994,12.9381529 C83.94325,12.6352695 83.9634253,12.332386 83.9634253,12.0295026 C83.9634253,11.8402005 83.9634253,11.6508984 83.94325,11.4805265 C83.7414969,7.82699535 81.5625636,5.08211444 77.8503069,4.76030082 C77.3257489,4.66564975 73.7950699,4.64671954 72.5038502,6.55867107 L72.5038502,5.25248637 L68.5898403,5.25248637 L68.5898403,26 L72.624902,26 L72.624902,18.1628917 C74.1582254,19.601588 77.0432945,19.431216 77.4871514,19.3744254 C81.0581809,19.1094024 83.5195685,16.5159632 83.9028994,12.9381529 Z M72.8064798,10.458295 C72.8468304,10.3636439 72.8871811,10.2500626 72.947707,10.1364814 C73.5529662,8.84922686 74.7836601,8.12987876 76.2161069,8.09201833 C78.2538131,8.12987876 79.9283636,9.51178432 79.9283636,12.0105724 C79.9283636,14.5093606 78.2134624,15.9291266 76.1959316,15.966987 C74.1784007,15.9291266 72.5442008,14.45257 72.5442008,12.0105724 C72.5442008,11.442666 72.6450773,10.9315503 72.8064798,10.458295 Z" id="Shape" fill="#2E3738"></path>
                <path d="M45.7689637,5.18271025 L45.7689637,6.60595247 C45.6464649,6.37823372 44.2173137,4.72727273 41.5631755,4.72727273 C40.8690162,4.72727273 39.2357005,4.78420242 37.8065492,5.58121806 C36.7244775,6.20744465 34.4990846,7.76352282 34.3153367,11.4259995 C34.2949202,11.6157651 34.2949202,11.7865542 34.2949202,11.9763198 C34.2949202,12.2799448 34.3357532,12.6025465 34.3561696,12.8871949 C34.5807505,16.1891169 37.5615518,19.1874138 41.1548465,19.1874138 C41.8081728,19.1874138 44.1764807,19.3202498 45.6260485,17.9729138 L45.6260485,19.2063904 C45.6260485,19.6618279 45.5647992,20.0982888 45.4014676,20.5347498 C44.8706399,21.9769686 43.5844037,22.6221717 41.6652577,22.6221717 L41.6448412,22.6221717 C41.5631755,22.6221717 41.5019262,22.6221717 41.4202603,22.6221717 C41.3385946,22.6221717 41.2569287,22.6221717 41.1956794,22.6031952 C41.1344301,22.6031952 41.0731807,22.5842186 41.0119314,22.5842186 C40.0523584,22.4513827 39.2969498,22.0338983 38.7865387,21.4266483 C38.5619577,21.1609764 38.3782096,20.8573514 38.255711,20.5157733 L34.8665807,22.2616171 C35.5199071,23.6089531 36.8061432,24.7855 38.5619577,25.4307031 C38.5823742,25.4307031 38.6027906,25.4496796 38.6232071,25.4496796 C38.8069551,25.5255859 39.0111196,25.5825156 39.1948676,25.6394452 C39.2357005,25.6584219 39.2561169,25.6584219 39.2969498,25.6773984 C39.5215307,25.7343281 39.7461117,25.7912577 39.991109,25.8292109 C40.1544406,25.8481875 40.3177721,25.8861406 40.4811037,25.9051171 C40.5423531,25.9240937 40.6036024,25.9240937 40.6648518,25.9240937 C40.766934,25.9430702 40.8690162,25.9430702 40.9710985,25.9620469 C41.0527643,25.9620469 41.1344301,25.9810235 41.2365123,25.9810235 C41.3181781,25.9810235 41.3794274,25.9810235 41.4610932,26 C41.5631755,26 41.6448412,26 41.7469235,26 L41.7673399,26 C44.0948149,26 45.8506294,25.4117265 47.1164492,24.4439218 C48.7905978,23.1535155 49.5868392,21.1989296 49.6685051,19.1115075 L49.6685051,5.22066337 L45.7689637,5.22066337 L45.7689637,5.18271025 Z M45.6464649,12.4697105 C45.4423005,14.6140621 43.8906505,15.9044684 41.9715044,15.9424215 C39.9298596,15.9044684 38.1944617,14.4812261 38.1944617,11.9763198 C38.1944617,9.75606196 39.5215307,8.40872597 41.2569287,8.10510096 C41.2569287,8.10510096 41.2773452,8.10510096 41.2773452,8.10510096 C41.5019262,8.06714784 41.7060906,8.04817128 41.951088,8.04817128 C43.4006557,8.06714784 44.646059,8.8072338 45.2585524,10.0976401 C45.2993853,10.2114995 45.3402182,10.3063823 45.3810512,10.4202417 L45.4014676,10.4202417 C45.5647992,10.8756792 45.6668814,11.407023 45.6668814,11.9952965 C45.6668814,12.147109 45.6668814,12.317898 45.6464649,12.4697105 Z" id="Shape" fill="#2E3738"></path>
            </g>
        </g>
    </g>
</svg>